# xmcd
#
# Track frame offsets:
#	150
#	10200
#	23775
#	36745
#	49616
#	59060
#	72829
#	85851
#	98775
#	111925
#	124383
#	137106
#	149456
#	162270
#	174902
#	188134
#	200608
#	213617
#	226511
#	237789
#	250312
#	263184
#	276976
#	289529
#	302027
#	315022
#
# Disc length: 4389 seconds
#
# Revision: 0
# Processed by: cddbd v1.5.1PL2 Copyright (c) Steve Scherf et al.
# Submitted via: EasyCDDAExtractor 9.1.3.1
#
DISCID=7b11231a
DTITLE=Memphis Slim - Rockin' This House (Chicago Blues Piano 1946-53) - Disc 
DTITLE=B (Memphis Slim, 1948-53)
DYEAR=2006
DGENRE=Blues
TTITLE0=You And I
TTITLE1=Timsy's Whimsy
TTITLE2=Frisco Bay
TTITLE3=Restless Nights
TTITLE4=If You Live That Life
TTITLE5=Love At First Sight
TTITLE6=Jumping Bean
TTITLE7=A Letter Home
TTITLE8=Grinder Man Blues
TTITLE9=Slim's Boogie
TTITLE10=Mistake In Life
TTITLE11=The Girl I Love
TTITLE12=Mean Little Woman
TTITLE13=Train Is Comin'
TTITLE14=The Question
TTITLE15=Drivin' Me Mad
TTITLE16=Never Let Me Love
TTITLE17=Train Time
TTITLE18=Blue Evening
TTITLE19=No Mail
TTITLE20=Gonna Need My Help Someday
TTITLE21=Back Alley
TTITLE22=Living The Life I Love
TTITLE23=The Comeback
TTITLE24=5 O'Clock Blues
TTITLE25=Call Me Before You Go Home
EXTD=
EXTT0=
EXTT1=
EXTT2=
EXTT3=
EXTT4=
EXTT5=
EXTT6=
EXTT7=
EXTT8=
EXTT9=
EXTT10=
EXTT11=
EXTT12=
EXTT13=
EXTT14=
EXTT15=
EXTT16=
EXTT17=
EXTT18=
EXTT19=
EXTT20=
EXTT21=
EXTT22=
EXTT23=
EXTT24=
EXTT25=
PLAYORDER=
